<?xml version="1.0" encoding="UTF-8" standalone="no"?>
<!-- Created with Inkscape (http://www.inkscape.org/) -->

<svg
   xmlns:dc="http://purl.org/dc/elements/1.1/"
   xmlns:cc="http://creativecommons.org/ns#"
   xmlns:rdf="http://www.w3.org/1999/02/22-rdf-syntax-ns#"
   xmlns:svg="http://www.w3.org/2000/svg"
   xmlns="http://www.w3.org/2000/svg"
   xmlns:sodipodi="http://sodipodi.sourceforge.net/DTD/sodipodi-0.dtd"
   xmlns:inkscape="http://www.inkscape.org/namespaces/inkscape"
   id="svg2"
   sodipodi:version="0.32"
   inkscape:version="0.92.3 (2405546, 2018-03-11)"
   width="1792.6801"
   height="2417.8501"
   version="1.0"
   sodipodi:docname="Maria.svg"
   inkscape:output_extension="org.inkscape.output.svg.inkscape">
  <metadata
     id="metadata7">
    <rdf:RDF>
      <cc:Work
         rdf:about="">
        <dc:format>image/svg+xml</dc:format>
        <dc:type
           rdf:resource="http://purl.org/dc/dcmitype/StillImage" />
        <dc:title />
      </cc:Work>
    </rdf:RDF>
  </metadata>
  <defs
     id="defs5" />
  <sodipodi:namedview
     inkscape:window-height="1017"
     inkscape:window-width="1920"
     inkscape:pageshadow="2"
     inkscape:pageopacity="0.0"
     guidetolerance="10.0"
     gridtolerance="10.0"
     objecttolerance="10.0"
     borderopacity="1.0"
     bordercolor="#666666"
     pagecolor="#ffffff"
     id="base"
     inkscape:zoom="0.31955686"
     inkscape:cx="-11.569791"
     inkscape:cy="1156.8464"
     inkscape:window-x="-8"
     inkscape:window-y="-8"
     inkscape:current-layer="svg2"
     width="1792.68px"
     height="2417.85px"
     showgrid="false"
     inkscape:window-maximized="1" />
  <path
     style="fill:none;fill-rule:evenodd;stroke:#000000;stroke-width:61.31919861;stroke-linecap:butt;stroke-linejoin:miter;stroke-miterlimit:4;stroke-dasharray:none;stroke-opacity:1"
     d="M 17.852542,2119.1433 539.87842,274.74315 899.99377,1008.3157 1282.9953,288.5764 1781.2591,2126.3018"
     id="path2161"
     sodipodi:nodetypes="ccccc"
     inkscape:connector-curvature="0" />
  <path
     style="fill:none;fill-rule:evenodd;stroke:#000000;stroke-width:61.31871033;stroke-linecap:butt;stroke-linejoin:miter;stroke-miterlimit:4;stroke-dasharray:none;stroke-opacity:1"
     d="M 303.15278,2280.8026 929.98677,19.315317 1436.3635,2313.3288"
     id="path2163"
     sodipodi:nodetypes="ccc"
     inkscape:connector-curvature="0" />
  <path
     style="fill:none;fill-rule:evenodd;stroke:#000000;stroke-width:61.31919861;stroke-linecap:butt;stroke-linejoin:miter;stroke-miterlimit:4;stroke-dasharray:none;stroke-opacity:1"
     d="m 547.14536,1426.9908 676.21034,0.493"
     id="path2165"
     sodipodi:nodetypes="cc"
     inkscape:connector-curvature="0" />
  <path
     style="fill:none;fill-rule:evenodd;stroke:#000000;stroke-width:61.31919861;stroke-linecap:butt;stroke-linejoin:miter;stroke-miterlimit:4;stroke-dasharray:none;stroke-opacity:1"
     d="m 902.91096,1522.4495 -8.52002,785.2229"
     id="path2167"
     sodipodi:nodetypes="cc"
     inkscape:connector-curvature="0" />
  <path
     style="fill:none;fill-rule:evenodd;stroke:#000000;stroke-width:61.31919861;stroke-linecap:butt;stroke-linejoin:miter;stroke-miterlimit:4;stroke-dasharray:none;stroke-opacity:1"
     d="m 1256.3228,1512.5446 -220.4177,792.6492"
     id="path2171"
     sodipodi:nodetypes="cc"
     inkscape:connector-curvature="0" />
  <path
     style="fill:none;fill-rule:evenodd;stroke:#000000;stroke-width:61.31919861;stroke-linecap:butt;stroke-linejoin:miter;stroke-miterlimit:4;stroke-dasharray:none;stroke-opacity:1"
     d="m 1112.5859,1990.1889 238.5691,-2.1247"
     id="path2173"
     sodipodi:nodetypes="cc"
     inkscape:connector-curvature="0" />
  <path
     style="fill:none;fill-rule:evenodd;stroke:#000000;stroke-width:61.31919861;stroke-linecap:butt;stroke-linejoin:miter;stroke-miterlimit:4;stroke-dasharray:none;stroke-opacity:1"
     d="m 560.24871,1854.0758 96.6873,459.2566"
     id="path2179"
     sodipodi:nodetypes="cc"
     inkscape:connector-curvature="0" />
  <path
     style="fill:none;fill-rule:evenodd;stroke:#000000;stroke-width:61.31871033;stroke-linecap:butt;stroke-linejoin:miter;stroke-miterlimit:4;stroke-dasharray:none;stroke-opacity:1"
     d="m 538.8684,1507.2772 c 231.65621,55.9411 350.07303,409.0041 -103.73147,360.6347"
     id="path3152"
     sodipodi:nodetypes="cc"
     inkscape:connector-curvature="0" />
  <path
     style="fill:#501616;stroke-width:3.12117434"
     d="m 584.24901,2112.3174 c -23.5508,-112.7792 -43.42036,-206.6711 -44.15451,-208.6486 -0.92605,-2.4869 -16.27807,-3.8971 -49.80271,-4.5736 -26.65713,-0.538 -48.88537,-0.8089 -49.39473,-0.6014 -0.51152,0.2075 -24.62646,85.9638 -53.59203,190.5699 -28.96458,104.6063 -53.24953,191.7759 -53.96627,193.7101 -1.55127,4.188 -57.86945,-8.5754 -57.29546,-12.9848 0.19259,-1.5009 98.44303,-356.8566 218.32808,-789.6795 l 217.97316,-786.95101 -80.5183,-164.3745 c -44.28572,-90.40584 -81.59582,-165.49248 -82.9116,-166.85917 -1.31492,-1.36669 -3.97165,3.43568 -5.90102,10.67188 -10.39638,38.9757 -495.427609,1750.322 -496.310363,1751.1424 -0.57854,0.5371 -13.271134,-2.1482 -28.207315,-5.9667 -22.1220931,-5.6554 -27.0545403,-7.9796 -26.6049638,-12.536 C -7.1829771,2095.8278 531.1712,195.21694 532.87962,195.31563 c 0.8779,0.0459 46.88559,92.65541 102.23813,205.78805 79.05678,161.58207 101.12587,204.2261 102.90279,198.84287 1.24443,-3.76912 38.33167,-137.15185 82.41678,-296.40605 44.08503,-159.25419 80.68517,-290.059166 81.33343,-290.677827 0.64633,-0.618769 13.98402,-0.168927 29.63602,0.999837 l 28.45726,2.124623 63.45107,287.845307 c 34.8983,158.31504 64.4293,286.79185 65.6245,285.5042 1.1961,-1.28774 47.256,-87.19719 102.3558,-190.90988 55.0999,-103.71279 100.8683,-186.72508 101.7085,-184.47174 0.8393,2.25325 117.4696,431.50718 259.1777,953.89768 l 257.6515,949.8008 -28.6444,6.987 c -15.7543,3.8429 -28.9607,6.5872 -29.3466,6.0981 -0.3859,-0.4884 -107.5313,-395.3685 -238.1032,-877.5106 -130.5698,-482.14208 -238.3481,-877.66345 -239.5058,-878.93641 -1.1567,-1.27304 -39.2423,67.33212 -84.6337,152.456 l -82.5295,154.77048 3.8991,18.29476 c 2.1446,10.06203 82.0068,372.29747 177.4719,804.96747 95.4651,432.6702 174.0657,789.9902 174.6677,794.0447 1.035,6.9705 -0.4439,7.6871 -27.181,13.1622 -15.5507,3.1846 -28.6,5.3559 -28.9966,4.8247 -0.3951,-0.5306 -15.3944,-67.4866 -33.3268,-148.7902 -17.9325,-81.3033 -33.6386,-148.6782 -34.9022,-149.722 -1.2628,-1.0438 -45.0296,-1.241 -97.2576,-0.4379 -84.0509,1.2921 -95.1389,2.029 -96.5069,6.4134 -0.8489,2.7247 -19.0341,68.0705 -40.4096,145.2134 -21.3755,77.1425 -39.1353,140.5692 -39.4671,140.948 -1.1422,1.3046 -51.3482,-12.1957 -54.0831,-14.5427 -1.5058,-1.293 46.5239,-179.5037 106.7335,-396.024 l 109.4724,-393.6731 -4.1665,-21.0726 c -2.2911,-11.5899 -5.3395,-22.8854 -6.774,-25.1011 -2.1282,-3.287 -62.5404,-4.1842 -328.19206,-4.8738 l -325.58362,-0.8456 -1.79039,8.468 c -0.98398,4.6573 -2.67892,10.6578 -3.76421,13.334 -1.49626,3.6877 1.73832,6.1851 13.35503,10.3137 89.30171,31.7372 162.43051,100.0123 191.41735,178.7138 11.23568,30.5075 14.06414,78.9714 6.12767,105.0242 -8.70629,28.5837 -20.31722,47.3244 -41.76788,67.4147 -23.9473,22.4296 -65.3004,43.4128 -101.69501,51.6011 -13.40718,3.0165 -24.37663,6.4948 -24.37663,7.7296 0,1.2347 18.65216,90.5134 41.44956,198.3975 22.79646,107.884 41.84705,199.4881 42.33223,203.5652 0.82967,6.9807 -0.69487,7.7281 -26.2731,12.8193 -14.93618,2.9737 -27.88899,5.4693 -28.78423,5.5461 -0.89716,0.073 -20.897,-92.1345 -44.4488,-204.914 z m 743.36009,-155.505 c -0.82,-2.0962 -16.9852,-74.4746 -35.9201,-160.8409 -18.9347,-86.3664 -35.3334,-158.013 -36.4418,-159.2145 -1.7461,-1.8929 -21.9533,68.4691 -78.7828,274.3187 l -13.6783,49.5481 h 83.1577 c 65.1923,0 82.8354,-0.8234 81.6653,-3.8114 z M 594.15152,1836.8505 c 48.21584,-8.7291 85.48828,-27.9827 102.96742,-53.1893 4.75011,-6.8514 10.926,-21.3052 13.72164,-32.1198 18.14279,-70.1638 -52.7354,-169.4278 -147.28403,-206.2684 -12.12222,-4.7235 -22.41244,-8.2199 -22.8678,-7.7702 -0.45374,0.4499 -19.02355,66.6791 -41.26243,147.1757 -22.2388,80.4969 -41.13409,148.6849 -41.98972,151.5291 -1.29175,4.2922 1.32162,5.3984 15.37798,6.5074 28.844,2.2761 93.67943,-0.8574 121.33694,-5.8645 z m 608.99798,-442.6006 c -0.7718,-2.9347 -32.2137,-144.9446 -69.8625,-315.5774 -37.6476,-170.63281 -69.2864,-310.24441 -70.308,-310.24798 -1.0206,-0.002 -38.3597,68.52409 -82.97538,152.28348 -44.6155,83.7596 -81.32177,152.0216 -81.56875,151.6938 -0.25115,-0.3277 -33.298,-67.6539 -73.44619,-149.61306 -40.14819,-81.95919 -73.39604,-147.82024 -73.88506,-146.35769 -5.23829,15.66529 -170.2995,615.24115 -170.2995,618.60425 0,4.0037 37.48952,4.5506 311.87832,4.5506 295.43426,0 311.80406,-0.2819 310.46706,-5.336 z M 973.3802,807.73916 1044.1078,674.78496 987.97389,420.50101 C 957.10108,280.64478 931.01512,162.35788 930.00703,157.64125 c -1.0091,-4.71653 -2.92783,-7.46074 -4.26394,-6.09818 -1.33604,1.36255 -35.66723,122.63153 -76.29004,269.48655 l -73.86002,267.00922 54.68308,111.08164 c 30.07598,61.09493 58.15302,118.49612 62.39377,127.55817 4.24075,9.06216 8.22105,15.92269 8.84619,15.24572 0.62708,-0.67752 32.96415,-61.06043 71.86413,-134.18521 z"
     id="path66"
     inkscape:connector-curvature="0" />
  <path
     style="fill:#501616;stroke-width:3.12117434"
     d="m 866.22022,2139.7597 c 1.15184,-90.9781 3.05224,-266.6075 4.22241,-390.2873 l 2.12813,-224.8726 h 30.34798 30.34891 l -2.102,159.3164 c -1.15669,87.6241 -3.05617,263.2535 -4.22149,390.2873 l -2.11841,230.9707 h -30.34992 -30.34991 z"
     id="path68"
     inkscape:connector-curvature="0" />
</svg>
